<?xml version="1.0" encoding="utf-8"?>
<!-- Generator: Adobe Illustrator 19.0.0, SVG Export Plug-In . SVG Version: 6.00 Build 0)  -->
<svg version="1.1" xmlns="http://www.w3.org/2000/svg" xmlns:xlink="http://www.w3.org/1999/xlink" x="0px" y="0px"
	 viewBox="0 0 1002 1000" style="enable-background:new 0 0 1002 1000;" xml:space="preserve">
<style type="text/css">
	.st0{fill:none;stroke:#69696C;stroke-width:5.991;stroke-miterlimit:10;}
	.st1{fill:#F2F1CE;}
	.st2{fill:none;stroke:#ED5452;stroke-width:8.9866;stroke-miterlimit:10;}
	.st3{fill:#58595B;}
	.st4{fill:none;stroke:#ED5452;stroke-width:6.2906;stroke-miterlimit:10;}
	.st5{fill:none;stroke:#69696C;stroke-width:6.7363;stroke-linecap:round;stroke-miterlimit:10;}
	.st6{fill:none;stroke:#D4D4D4;stroke-width:2.0969;stroke-linecap:round;stroke-linejoin:round;stroke-miterlimit:10;}
	.st7{fill:#75CDD3;}
	.st8{fill:#91D5DE;stroke:#90D5DE;stroke-width:1.1821;stroke-miterlimit:10;}
	.st9{fill:none;stroke:#69696C;stroke-width:2.9955;stroke-miterlimit:10;}
	.st10{fill:none;stroke:#69696C;stroke-width:5.0729;stroke-linecap:round;stroke-miterlimit:10;}
	.st11{fill:none;stroke:#69696C;stroke-width:0.8987;stroke-linecap:square;stroke-linejoin:round;stroke-miterlimit:10;}
	.st12{fill:#69696C;}
	.st13{fill:#4B4B4D;}
	.st14{fill:none;stroke:#75CDD3;stroke-width:6.2906;stroke-linecap:round;stroke-linejoin:round;stroke-miterlimit:10;}
	.st15{fill:#828285;}
</style>
<g id="Layer_1">
</g>
<g id="Layer_2">
	<g>
		<g>
			<circle class="st0" cx="210.4" cy="603.7" r="184.3"/>
		</g>
		<path class="st1" d="M242.7,440.1C153.2,422.4,66,480.1,47.2,569.4C28.4,659.3,87.9,749.3,178,767.2
			c89.6,17.7,176.8-39.9,195.5-129.3C392.3,548,332.8,458,242.7,440.1z M346.4,631.4C346.4,631.4,346.4,631.4,346.4,631.4
			L346.4,631.4L346.4,631.4z M343,626.6l-120.2-24.5c-0.8-0.2-1-1.3-0.3-1.7l102.3-67.7c1.9-1.3,4.5-0.7,5.6,1.3
			c15.2,26.2,21.9,57.4,17.3,89.2C347.4,625.6,345.3,627.1,343,626.6z M246.1,469.5c31.1,8.3,57.2,26.7,75.3,50.9
			c1.4,1.8,0.9,4.5-1,5.7l-102.3,67.7c-0.7,0.5-1.6-0.2-1.5-1l24.5-120.2C241.6,470.4,243.9,468.9,246.1,469.5z M207.1,591.5
			l-67.7-102.3c-1.3-1.9-0.7-4.5,1.3-5.6c26.2-15.2,57.4-21.9,89.2-17.3c2.3,0.3,3.8,2.5,3.3,4.7l-24.5,120.2
			C208.7,592,207.6,592.2,207.1,591.5z M132.8,493.6l67.7,102.3c0.5,0.7-0.2,1.6-1,1.5L79.3,572.9c-2.2-0.5-3.6-2.7-3.1-4.9
			c8.3-31.1,26.7-57.2,50.9-75.3C128.9,491.2,131.5,491.7,132.8,493.6z M77.7,580.7l120.2,24.5c0.8,0.2,1,1.3,0.3,1.7L95.9,674.6
			c-1.9,1.3-4.5,0.7-5.6-1.3C75.1,647.1,68.4,615.9,73,584C73.3,581.7,75.5,580.2,77.7,580.7z M94.6,680.2L94.6,680.2
			C94.6,680.2,94.6,680.2,94.6,680.2z M204.1,614.5l-24.5,120.2c-0.5,2.2-2.7,3.6-4.9,3.1c-31.1-8.3-57.2-26.7-75.3-50.9
			c-1.4-1.8-0.9-4.5,1-5.7l102.3-67.7C203.3,613.1,204.2,613.7,204.1,614.5z M213.6,615.8l67.7,102.3c1.3,1.9,0.7,4.5-1.3,5.6
			c-26.2,15.2-57.4,21.9-89.2,17.3c-2.3-0.3-3.8-2.5-3.3-4.7l24.5-120.2C212.1,615.3,213.1,615.1,213.6,615.8z M287.9,713.7
			l-67.7-102.3c-0.5-0.7,0.2-1.6,1-1.5l123.3,25.1c0.5,0.1,0.9,0.6,0.7,1.2c-7.8,32.5-26.6,59.7-51.7,78.5
			C291.8,716.1,289.2,715.6,287.9,713.7z"/>
		<g>
			<circle class="st2" cx="210.4" cy="603.7" r="161.6"/>
		</g>
		<g>
			<circle class="st3" cx="210.4" cy="603.7" r="18.8"/>
		</g>
		<g>
			<circle class="st0" cx="791.7" cy="608.1" r="184.3"/>
		</g>
		<path class="st1" d="M809.3,436.7c-93.9-9.7-178.2,58.1-188.9,151.9c-10.8,94.3,59.1,181.3,153.6,191
			c93.9,9.7,178.2-58.1,188.9-151.9C973.7,533.3,903.8,446.4,809.3,436.7z M934.3,623.6C934.3,623.6,934.3,623.6,934.3,623.6
			L934.3,623.6L934.3,623.6z M930.4,619l-126.1-13.7c-0.9-0.1-1.2-1.2-0.5-1.7l98.8-79.5c1.8-1.5,4.6-1.1,5.9,0.8
			c18.1,25.5,28,56.9,26.4,90.2C934.9,617.5,932.8,619.3,930.4,619z M815.6,466.6c32.8,5.5,61.4,22,82.4,45.1c1.6,1.8,1.4,4.5-0.5,6
			l-98.8,79.5c-0.7,0.5-1.7,0-1.6-0.9l13.7-126.1C811,467.9,813.2,466.2,815.6,466.6z M787.2,595.9l-79.5-98.8
			c-1.5-1.8-1.1-4.6,0.8-5.9c25.5-18.1,56.9-28,90.2-26.4c2.4,0.1,4.1,2.2,3.9,4.6l-13.7,126.1C788.8,596.3,787.7,596.6,787.2,595.9
			z M701.3,502.2l79.5,98.8c0.5,0.7,0,1.7-0.9,1.6L653.8,589c-2.4-0.3-4-2.4-3.6-4.8c5.5-32.8,22-61.4,45.1-82.4
			C697,500.2,699.8,500.4,701.3,502.2z M652.9,597.2L779,610.9c0.9,0.1,1.2,1.2,0.5,1.7l-98.8,79.5c-1.8,1.5-4.6,1.1-5.9-0.8
			c-18.1-25.5-28-56.9-26.4-90.2C648.4,598.7,650.5,596.9,652.9,597.2z M679.8,698L679.8,698C679.8,698,679.8,698,679.8,698z
			 M786.2,619.9L772.5,746c-0.3,2.4-2.4,4-4.8,3.6c-32.8-5.5-61.4-22-82.4-45.1c-1.6-1.8-1.4-4.5,0.5-6l98.8-79.5
			C785.3,618.5,786.3,619,786.2,619.9z M796.2,620.3l79.5,98.8c1.5,1.8,1.1,4.6-0.8,5.9c-25.5,18.1-56.9,28-90.2,26.4
			c-2.4-0.1-4.1-2.2-3.9-4.6l13.7-126.1C794.5,619.9,795.6,619.6,796.2,620.3z M882.1,713.9l-79.5-98.8c-0.5-0.7,0-1.7,0.9-1.6
			l129.3,14.1c0.6,0.1,1,0.6,0.9,1.1c-4.9,34.2-21.7,64-45.6,85.7C886.3,716,883.5,715.8,882.1,713.9z"/>
		<g>
			<circle class="st4" cx="791.7" cy="608.1" r="165.4"/>
		</g>
		<g>
			<circle class="st3" cx="791.7" cy="608.1" r="18.8"/>
		</g>
		<line class="st5" x1="392.2" y1="509.3" x2="432.6" y2="521.7"/>
		<path class="st6" d="M182.3,710.2c-57.1-11.6-94-67.4-82.3-124.5"/>
		<path class="st7" d="M799.3,604L698.7,276c-1.8-5.8-9.1-7.6-13.4-3.3l-6.7,6.7c-2.2,2.2-2.9,5.4-1.9,8.3l5.6,16.3
			c1.7,4.9-1.6,10.1-6.7,10.7l-302.2,35.4c-3.9,0.5-7.5-1.9-8.7-5.7l-11.1-36.4c-1.3-4.3-5.8-6.7-10.1-5.4l0,0
			c-4.3,1.3-6.7,5.8-5.4,10.1l11.2,36.8c0.7,2.2,0.4,4.5-0.8,6.5L205.3,599.3c-3,5,0.2,11.5,6.1,12.1l232.1,26.7
			c2.4,0.3,4.8-0.6,6.6-2.3l249.8-244.5c4.3-4.2,11.4-2.5,13.3,3.2l70.6,214.5c1.4,4.2,6,6.5,10.2,5.1l0.2-0.1
			C798.3,612.7,800.6,608.2,799.3,604z M362,391.7l66.2,217c1.7,5.6-2.9,11.1-8.7,10.4l-181.6-20.9c-5.8-0.7-9-7.1-6.1-12.1
			L347.3,390C350.9,383.9,360,385,362,391.7z M443.4,603.1l-69.2-227c-1.5-4.8,1.8-9.8,6.8-10.4l303.3-35.5c3.8-0.4,7.4,1.8,8.6,5.4
			l8.6,25.1c1,3,0.2,6.2-2,8.4L456.8,606.5C452.5,610.8,445.2,608.9,443.4,603.1z"/>
		<path class="st8" d="M479.1,583.7c-55.8-41.6-118.4,20.9-76.7,76.7c0.3,0.4,0.7,0.8,1.2,1.2c55.8,41.6,118.4-20.9,76.7-76.7
			C479.9,584.4,479.5,584,479.1,583.7z M485,622.6L485,622.6L485,622.6L485,622.6z M478.7,621.4H458c-5,0-7.6-6.1-4-9.7l14.7-14.7
			c2.7-2.7,6.6-2.3,8.7,0.8c3.4,5,5.9,10.7,7,16.9C485,618.4,482.4,621.4,478.7,621.4z M449.2,579.6c6.2,1.1,11.9,3.5,16.9,7
			c3.1,2.1,3.5,6,0.8,8.7l-14.7,14.7c-3.6,3.6-9.7,1-9.7-4v-20.7C442.6,581.5,445.6,578.9,449.2,579.6z M430.4,609.9l-14.7-14.7
			c-2.7-2.7-2.3-6.6,0.8-8.7c5-3.4,10.7-5.9,16.9-7c3.6-0.7,6.6,1.9,6.6,5.6v20.7C440.1,611,434,613.5,430.4,609.9z M414,597
			l14.7,14.7c3.6,3.6,1,9.7-4,9.7h-20.7c-3.7,0-6.2-3-5.6-6.6c1.1-6.2,3.5-11.9,7-16.9C407.4,594.8,411.3,594.4,414,597z
			 M403.9,623.9h20.7c5,0,7.6,6.1,4,9.7L414,648.2c-2.7,2.7-6.6,2.3-8.7-0.8c-3.4-5-5.9-10.7-7-16.9
			C397.7,626.8,400.2,623.9,403.9,623.9z M410.4,653.5L410.4,653.5L410.4,653.5z M440.1,639.3V660c0,3.7-3,6.2-6.6,5.6
			c-6.2-1.1-11.9-3.5-16.9-7c-3.1-2.1-3.5-6-0.8-8.7l14.7-14.7C434,631.7,440.1,634.3,440.1,639.3z M452.2,635.3l14.7,14.7
			c2.7,2.7,2.3,6.6-0.8,8.7c-5,3.4-10.7,5.9-16.9,7c-3.6,0.7-6.6-1.9-6.6-5.6v-20.7C442.6,634.3,448.7,631.7,452.2,635.3z
			 M468.7,648.2L454,633.5c-3.6-3.6-1-9.7,4-9.7h20.7c3.5,0,6.2,3.2,5.6,6.6c-1.1,6.2-3.5,11.9-7,16.9
			C475.2,650.5,471.3,650.8,468.7,648.2z"/>
		<g>
			<circle class="st9" cx="441.3" cy="622.6" r="54.3"/>
		</g>
		<line class="st10" x1="676.5" y1="300.3" x2="707.6" y2="293.6"/>
		<path class="st11" d="M713.4,293.2c0,0,22.5,3.4,30.2,4.7c7.2,1.3,16.2,4.6,16.7,17c0.5,12.4-6,18.5-15.5,19.9
			c-9.5,1.4-380.5,42.9-437.8,49.8c-4.6,0.6-6.1,2.8-7.6,5.6c-5.1,9.2-22.1,37.6-22.1,37.6"/>
		<path class="st7" d="M433.9,628.5l3-10.3c0.9-3,4.7-4,6.9-1.8l7.6,7.6c0.6,0.6,1,1.4,1.2,2.3l14.6,93.3c0.2,1.5-1.9,2-2.4,0.6
			L434,631C433.7,630.2,433.7,629.3,433.9,628.5z"/>
		<line class="st5" x1="447.1" y1="720.9" x2="489.2" y2="724"/>
		<path class="st12" d="M274.8,286.8c7-9.4,31.1-3.4,44.2-5.1c13.1-1.7,68.2-13.8,78.1-13.5c9.9,0.3,15.6,1.2,14.1,7
			c-1.5,5.7-21.3,11.6-32.8,12.2c-11.4,0.6-16.7,4.3-28.8,8c-5.2,1.6-27.1,12.1-43,11.3C285.7,305.7,270.8,292.2,274.8,286.8z"/>
		<path class="st13" d="M304,281.8c-11.9-0.6-24.8-1.4-29.6,5.1c-4,5.4,10.9,18.8,31.8,19.9c15.9,0.9,37.8-9.7,43-11.3
			c0.3-0.1,0.6-0.2,0.9-0.3C329.3,293.1,312.5,288.2,304,281.8z"/>
		
			<rect x="331.5" y="296.5" transform="matrix(0.9611 -0.2762 0.2762 0.9611 -70.3362 106.5871)" class="st13" width="23.4" height="12.9"/>
		<path class="st14" d="M729.4,216.4c-0.4,32.8-28.5,58.9-62.7,58.5"/>
		<circle class="st12" cx="729.5" cy="220.9" r="13.3"/>
		<circle class="st15" cx="729.5" cy="220.9" r="3.5"/>
	</g>
</g>
</svg>
