<?xml version="1.0" encoding="utf-8"?>
<!-- Generator: Adobe Illustrator 19.0.0, SVG Export Plug-In . SVG Version: 6.00 Build 0)  -->
<svg version="1.1" xmlns="http://www.w3.org/2000/svg" xmlns:xlink="http://www.w3.org/1999/xlink" x="0px" y="0px"
	 viewBox="0 0 1000 1000" style="enable-background:new 0 0 1000 1000;" xml:space="preserve">
<style type="text/css">
	.st0{fill:url(#SVGID_1_);}
	.st1{opacity:0.2;fill:#7DB3EF;}
	.st2{fill:url(#SVGID_2_);}
	.st3{fill:#FFFFFF;}
	.st4{fill:url(#SVGID_3_);}
	.st5{fill:url(#SVGID_4_);}
	.st6{opacity:0.3;fill:#7DB3EF;}
	.st7{fill:#F7B703;}
	.st8{fill:url(#SVGID_5_);}
	.st9{fill:url(#SVGID_6_);}
	.st10{fill:url(#SVGID_7_);}
	.st11{opacity:0.6;fill:#273326;}
	.st12{fill:#273326;}
	.st13{fill:url(#SVGID_8_);}
	.st14{fill:#EFEAE1;}
	.st15{fill:url(#SVGID_9_);}
	.st16{fill:#EAD513;}
	.st17{fill:url(#SVGID_10_);}
	.st18{fill:#85BBC9;}
	.st19{opacity:0.2;fill:#FFFFFF;}
</style>
<g id="background">
	<g>
		<linearGradient id="SVGID_1_" gradientUnits="userSpaceOnUse" x1="526.7127" y1="680.0455" x2="526.7127" y2="87.8875">
			<stop  offset="0" style="stop-color:#535075"/>
			<stop  offset="1" style="stop-color:#1A3547"/>
		</linearGradient>
		<circle class="st0" cx="526.7" cy="495.8" r="408.9"/>
		<g>
			<path class="st1" d="M912.7,360.4c-6-17-13.1-33.6-21.2-49.5c-351.2,51.8-563.7,171.6-563.7,171.6S531.8,386.3,912.7,360.4z"/>
			<path class="st1" d="M167.4,691.3c162.6-69.5,446.5-174,767.7-217.5c-1.8-34.7-8-68.3-18-100.2
				c-299.2,60.2-592.6,208.3-757.7,302.2C162,681,164.6,686.2,167.4,691.3z"/>
		</g>
		<linearGradient id="SVGID_2_" gradientUnits="userSpaceOnUse" x1="493.5623" y1="-72.7777" x2="509.6487" y2="207.5826">
			<stop  offset="0" style="stop-color:#535075"/>
			<stop  offset="1" style="stop-color:#1A3547"/>
		</linearGradient>
		<path class="st2" d="M796.5,188.5c-72-63.2-166.4-101.6-269.8-101.6c-120.8,0-229.3,52.3-304.1,135.6c17.6,1.6,16.3,8.1,16.3,8.1
			s13.8-11.8,27.6-8.3c13.8,3.5,13.8,3.5,13.8,3.5s16.8-23.3,39.5-19.4c22.8,3.9,19.8,7.5,19.8,7.5
			C467.8,190.3,640.8,182.5,796.5,188.5z"/>
	</g>
	<g>
		<path class="st3" d="M27.8,371.7c0,0,185.3-3.9,229.2,0c43.9,3.9,131,4,135.5-16.6c4.5-20.6-62.2-36.5-111-22
			c24.6-3.1,20.3-29.3-8.4-23.2c38-24.6-5-80.2-47.1-41.2c-12.8-27.5-37,4.5-21.1,12.9c-21.5-7.7-71.3-18-70,29.6
			c-18.7-7.7-38.1,10.9-23.2,21.9c-12.9,1.3-24.5,12.2-12.9,22.5C63.3,361.4,27.8,371.7,27.8,371.7z"/>
		<linearGradient id="SVGID_3_" gradientUnits="userSpaceOnUse" x1="206.0842" y1="343.4175" x2="206.0842" y2="38.6583">
			<stop  offset="0" style="stop-color:#E0E9F0"/>
			<stop  offset="1" style="stop-color:#C1DCE3"/>
		</linearGradient>
		<path class="st4" d="M27.8,371.7c0,0,185.3-3.9,229.2,0c43.9,3.9,122.7,5.8,127.2-14.8c4.5-20.6-65.2-26.4-102.7-23.8
			c10.3-7.7,10.3-21.2-8.4-23.2c29.1-29.1-14.2-59.8-47.1-41.2c-17.4-10.9-29.9,3.9-21.1,12.9c-21.5-7.7-71.3-18-70,29.6
			c-18.7-7.7-38.1,10.9-23.2,21.9c-12.9,1.3-24.5,12.2-12.9,22.5C63.3,361.4,27.8,371.7,27.8,371.7z"/>
		<path class="st3" d="M197.4,315.2c0,0-11.3-11.4-20.4-6c-9.1,5.4,3.8,19.9,3.8,19.9s-20.8-5.7-19.3,9.4
			c-1.1-12.4,11.1-16.8,11.1-16.8s-12.8-26.7,6.8-26.7C196.4,294.9,197.4,315.2,197.4,315.2z"/>
		<path class="st3" d="M27.8,370.1c0,0,128.2-21.4,157-23.9c28.8-2.5,25.5,11.9,25.5,11.9s58.2-5.7,91.3-3.7
			c33.1,2,76.9,9,58.6,13.2c-18.3,4.2-65,11.7-132.8,5.9C159.7,367.7,46.8,371.8,27.8,370.1"/>
		<path class="st3" d="M221.8,344.2c-8.6,0.1-11.2,7.1-6.1,8.1c5.1,0.9,22.4-0.2,23.5-3C240.2,346.4,243.4,343.8,221.8,344.2z"/>
	</g>
	<g>
		<path class="st3" d="M453.7,813.1c0,0,295.6-10.6,364.9,0c50.6,7.7,91,11.9,98.2-20.8c7.2-32.8-2.2-61.6-59.1-40.6
			c30-44-21.2-37.3-38.7-17.4c69-62.8-0.4-128-75-65.5c-22.2-36.6-47.6,6.1-33.5,20.5c-18.2-29.5-93.5-36.7-86.1,27.7
			c-34.2-40-60.6,17.4-37,34.8c-20.6,2-39.8,27.3-21.3,43.7C502.3,794.4,453.7,813.1,453.7,813.1z"/>
		<linearGradient id="SVGID_4_" gradientUnits="userSpaceOnUse" x1="683.3998" y1="790.9637" x2="683.3998" y2="572.492">
			<stop  offset="0" style="stop-color:#E0E9F0"/>
			<stop  offset="1" style="stop-color:#C1DCE3"/>
		</linearGradient>
		<path class="st5" d="M453.7,813.1c0,0,295.6-10.6,364.9,0c50.6,7.7,86.1,9.8,93.3-23c7.2-32.8-18-38.5-54.2-38.5
			c6.9-27-16.8-31.8-38.7-17.4c46.3-46.3-22.6-95.2-75-65.5c-27.8-17.4-47.6,6.1-33.5,20.5c-18.2-29.5-93.5-36.7-86.1,27.7
			c-29.8-12.3-60.6,17.4-37,34.8c-20.6,2-39.8,27.3-21.3,43.7C502.3,794.4,453.7,813.1,453.7,813.1z"/>
		<path class="st3" d="M727.1,732.7c0,0-5-34.8,25.9-33.3c30.9,1.4,11.5,40.6,11.5,40.6s11.9-8.7,15.8-4c4,4.7-5,14-5,14
			s13,0,14.7,7.9c1.8,7.9-18,3.9-18,3.9s10.6,0.1,12.6-4.3c2-4.4-16.2-5.4-16.2-5.4s8.6-11,5.8-12.1c-2.9-1.2-15.7,7.8-15.7,7.8
			s2.8-32.6-9.8-33.3C736.1,713.7,729.2,716.9,727.1,732.7z"/>
		<path class="st3" d="M714.3,799.7c-48.5,1.2-260.6,13.4-260.6,13.4s176.1-1.9,210.7,0c34.5,1.9,182.2,8.9,182.7,3.7
			C847.6,811.6,742.7,799,714.3,799.7z"/>
	</g>
	<g>
		<polygon class="st6" points="333.9,518.4 315.8,502.4 293.6,512 309.6,493.8 300,471.7 318.2,487.6 340.3,478.1 324.4,496.2 		"/>
		<polygon class="st3" points="312.5,523.5 310.9,499.4 288.5,490.5 312.6,489 321.5,466.5 323.1,490.6 345.5,499.6 321.4,501.1 		
			"/>
	</g>
	<g>
		<polygon class="st3" points="898.5,498.3 877.8,485.8 857.7,499.2 870.1,478.5 856.8,458.4 877.5,470.8 897.6,457.5 885.1,478.2 
					"/>
	</g>
	<g>
		<circle class="st3" cx="228" cy="528.8" r="2.6"/>
		<circle class="st3" cx="270.3" cy="569.9" r="2.6"/>
		<circle class="st3" cx="328.2" cy="506.5" r="2.6"/>
		<circle class="st3" cx="154.6" cy="504.3" r="2.6"/>
		<circle class="st3" cx="209.1" cy="577.7" r="2.6"/>
	</g>
	<g>
		<circle class="st3" cx="846.5" cy="528.8" r="2.6"/>
		<circle class="st3" cx="895.5" cy="526.6" r="2.6"/>
		<circle class="st3" cx="764.2" cy="556.6" r="2.6"/>
		<circle class="st3" cx="773.1" cy="504.3" r="2.6"/>
		<circle class="st3" cx="827.6" cy="577.7" r="2.6"/>
	</g>
</g>
<g id="rockets">
	<g>
		<path class="st7" d="M585.3,388.7c0,0-18.7-19.9-75.9,47.4c-57.2,67.4-143.1,187.1-256.6,336C437,633.9,560.7,557.5,601.1,520.2
			c40.5-37.3,45.9-62.2,41.2-88.4C619.2,389.7,585.3,388.7,585.3,388.7z"/>
		
			<linearGradient id="SVGID_5_" gradientUnits="userSpaceOnUse" x1="880.4081" y1="201.9648" x2="872.8646" y2="228.7863" gradientTransform="matrix(0.7071 -0.7071 0.7071 0.7071 -174.4464 735.5908)">
			<stop  offset="0" style="stop-color:#D10219"/>
			<stop  offset="1" style="stop-color:#900219"/>
		</linearGradient>
		<path class="st8" d="M685.3,187.2c0,0-28.5-10.8-65.8,10.1c-37.3,20.9-122,93-130.9,113.2c45.5,0.6,100.8,12.3,106.5,19.3
			C679.6,247.3,685.3,187.2,685.3,187.2z"/>
		
			<linearGradient id="SVGID_6_" gradientUnits="userSpaceOnUse" x1="970.7332" y1="217.8873" x2="791.8197" y2="213.4676" gradientTransform="matrix(0.7071 -0.7071 0.7071 0.7071 -174.4464 735.5908)">
			<stop  offset="0" style="stop-color:#B20219"/>
			<stop  offset="1" style="stop-color:#900219"/>
		</linearGradient>
		<path class="st9" d="M686.4,188.3c0,0-27.6-9.9-64.6,11.3c-37,21.2-115.2,91.7-124.3,111.7c44.6-0.3,92.3,11.9,97.7,18.6
			C679.6,247.2,686.4,188.3,686.4,188.3z"/>
		
			<linearGradient id="SVGID_7_" gradientUnits="userSpaceOnUse" x1="772.5673" y1="450.5142" x2="995.716" y2="450.5142" gradientTransform="matrix(0.7071 -0.7071 0.7071 0.7071 -174.4464 735.5908)">
			<stop  offset="0" style="stop-color:#B20219"/>
			<stop  offset="1" style="stop-color:#900219"/>
		</linearGradient>
		<path class="st10" d="M843,344.9c0,0,10.8,28.5-10.1,65.8C812,448,739.3,527.7,719,536.5c-0.6-45.5-11.7-95.8-18.7-101.5
			C782.9,350.6,843,344.9,843,344.9z"/>
		<path class="st11" d="M574.1,321.4c0,0,71.4-106.6,111.2-134.2c8.5,14.6-87.7,142.4-87.7,142.4S586.7,324.3,574.1,321.4z"/>
		<path class="st11" d="M701.3,435.7c0,0,11.2,28.3,13.8,51.8c71.4-43,129.6-123,128.9-151.8C749.5,378.8,701.3,435.7,701.3,435.7z"
			/>
		<path class="st12" d="M586.5,358.4l-12,30.1c0,0,15.4,8.6,33.5,26.8c18.1,18.1,34.2,44.3,34.2,44.3l37.5-18.1
			C679.6,441.5,618.9,358,586.5,358.4z"/>
		
			<linearGradient id="SVGID_8_" gradientUnits="userSpaceOnUse" x1="1042.0765" y1="209.4263" x2="1042.0765" y2="462.684" gradientTransform="matrix(0.7071 -0.7071 0.7071 0.7071 -174.4464 735.5908)">
			<stop  offset="0" style="stop-color:#F24C25"/>
			<stop  offset="1" style="stop-color:#BA0000"/>
		</linearGradient>
		<path class="st13" d="M576.7,363c0,0,64.1,44.7,92.3,90.6C791.7,416.1,852.6,332.5,895,285c68.6-76.9,97-206.5,75.9-227.6
			c-20.6-20.6-139.7,15.2-224.1,75.2C679.8,180.1,596.9,294.7,576.7,363z"/>
		<path class="st11" d="M835.6,351c-10.2-20.9-33-61.5-69.4-96.2c-37-35.3-72.1-50.4-89-56.1c-10.1,11.7-19.9,24-29.3,36.5
			c20.9,6.2,57.7,20.6,88.7,51.6c36.6,36.6,56.1,70.3,66.8,93.9C815,370.8,825.7,360.8,835.6,351z"/>
		<path class="st14" d="M837.7,348.8c-10.2-20.9-33-61.5-69.4-96.2c-37-35.3-72.1-50.4-89-56.1c-10.1,11.7-19.9,24-29.3,36.5
			c20.9,6.2,57.7,20.6,88.7,51.6c36.6,36.6,56.1,70.3,66.8,93.9C817.2,368.7,827.9,358.7,837.7,348.8z"/>
		<path class="st11" d="M674.1,349.2c29.2,29.2,47.5,56.5,59.1,78.3c12.9-6.7,25-13.9,36.2-21.5c-11.6-22.2-33.2-57.8-65.7-88.8
			c-29.9-28.5-58.5-43.8-77.3-51.7c-8.5,12.9-16.4,25.7-23.3,38.2C623.8,311.7,650.6,325.7,674.1,349.2z"/>
		<path class="st14" d="M676.5,346.7c29.2,29.2,47.5,56.5,59.1,78.3c12.9-6.7,25-13.9,36.2-21.5c-11.6-22.2-33.2-57.8-65.7-88.8
			c-29.9-28.5-58.5-43.8-77.3-51.7c-8.5,12.9-16.4,25.7-23.3,38.2C626.2,309.3,653,323.3,676.5,346.7z"/>
		<path class="st11" d="M764.2,268.6c0,0,18.9,20.5-54.2,85.3c-73.1,64.8-93.7,70.4-93.7,70.4l-6.2-8L764.2,268.6z"/>
		
			<linearGradient id="SVGID_9_" gradientUnits="userSpaceOnUse" x1="755.5732" y1="330.323" x2="995.73" y2="330.323" gradientTransform="matrix(0.7071 -0.7071 0.7071 0.7071 -174.4464 735.5908)">
			<stop  offset="0" style="stop-color:#B20219"/>
			<stop  offset="1" style="stop-color:#900219"/>
		</linearGradient>
		<path class="st15" d="M592.1,433.6c0,0,79.7-94.9,106.4-120.9c26.7-26,56.4-54.5,65.9-46.3c9.5,8.2-24.6,39.1-48.9,63.4
			C691.2,354,611.9,422.6,592.1,433.6z"/>
		<path class="st16" d="M608.1,425.6c0,0-24.3-32.3-62.2-3.9c-37.9,28.4-95,153.9-95,153.9S534,545,566,526
			C598,507,638.8,470,608.1,425.6z"/>
		<circle class="st11" cx="828.4" cy="198.1" r="63.3"/>
		<circle class="st14" cx="831.9" cy="194.5" r="63.3"/>
		<path class="st3" d="M873.1,153.3c24.1,24.1,24.7,62.8,1.7,87.7c0.6-0.6,1.2-1.1,1.8-1.7c24.7-24.7,24.7-64.8,0-89.5
			c-24.7-24.7-64.8-24.7-89.5,0c-0.6,0.6-1.2,1.2-1.7,1.8C810.2,128.6,849,129.2,873.1,153.3z"/>
		
			<linearGradient id="SVGID_10_" gradientUnits="userSpaceOnUse" x1="293.4715" y1="-90.5758" x2="369.8068" y2="-90.5758" gradientTransform="matrix(0.7071 0.7071 -0.7071 0.7071 533.3535 24.0604)">
			<stop  offset="0" style="stop-color:#B20219"/>
			<stop  offset="1" style="stop-color:#900219"/>
		</linearGradient>
		<path class="st17" d="M804.9,221.5c-14.9-14.9-14.9-39.1,0-54c14.9-14.9,39.1-14.9,54,0c14.9,14.9,14.9,39.1,0,54
			C844,236.4,819.8,236.4,804.9,221.5z"/>
		<path class="st18" d="M808.5,218c-12.9-12.9-12.9-34,0-46.9c12.9-12.9,33.9-12.9,46.9,0c12.9,12.9,12.9,34,0,46.9
			C842.4,230.9,821.4,230.9,808.5,218z"/>
		<path class="st19" d="M864.5,188.6c-0.7-3.8-2.1-7.5-4.1-11c-9.1-3.4-28-4.4-29.7,9.4c-0.9,7-16,11.4-31.5,11.8
			c0.6,4.4,2,8.8,4.4,12.7c11-2.8,39.8-6.4,38.9-17.2C841.4,182.2,857.1,185.8,864.5,188.6z"/>
	</g>
</g>
</svg>
