<?xml version="1.0" encoding="utf-8"?>
<!-- Generator: Adobe Illustrator 19.0.0, SVG Export Plug-In . SVG Version: 6.00 Build 0)  -->
<svg version="1.1" xmlns="http://www.w3.org/2000/svg" xmlns:xlink="http://www.w3.org/1999/xlink" x="0px" y="0px"
	 viewBox="0 0 283.5 283.5" style="enable-background:new 0 0 283.5 283.5;" xml:space="preserve">
<style type="text/css">
	.st0{fill:#F5F5F5;}
</style>
<g id="Livello_1">
	<path class="st0" d="M141.7,256.8c-63.5,0-115.1-51.6-115.1-115.1S78.3,26.6,141.7,26.6s115.1,51.6,115.1,115.1
		S205.2,256.8,141.7,256.8z M141.7,41.6c-55.2,0-100.1,44.9-100.1,100.1s44.9,100.1,100.1,100.1c55.2,0,100.1-44.9,100.1-100.1
		S196.9,41.6,141.7,41.6z"/>
</g>
<g id="Livello_2">
	<path class="st0" d="M141.7,81.8c-33,0-59.9,26.9-59.9,59.9c0,29.6,21.6,54.2,49.8,59.1v-15.3c-19.9-4.6-34.8-22.5-34.8-43.8
		c0-24.8,20.2-44.9,44.9-44.9c24.8,0,44.9,20.2,44.9,44.9c0,21.4-15,39.3-35.1,43.8v15.3c28.4-4.7,50.1-29.4,50.1-59.1
		C201.7,108.7,174.8,81.8,141.7,81.8z"/>
	<path class="st0" d="M151.6,54.7v15.1c35.4,4.8,62.7,35.2,62.7,71.9c0,40-32.6,72.6-72.6,72.6c-40,0-72.6-32.6-72.6-72.6
		c0-36.6,27.2-66.9,62.4-71.9V54.7c-43.5,5-77.4,42.1-77.4,87c0,48.3,39.3,87.6,87.6,87.6s87.6-39.3,87.6-87.6
		C229.3,96.8,195.2,59.6,151.6,54.7z"/>
</g>
<g id="Livello_3">
	<g>
		<circle class="st0" cx="141.7" cy="141.7" r="9.9"/>
		<path class="st0" d="M141.7,152.2c-5.7,0-10.4-4.7-10.4-10.4s4.7-10.4,10.4-10.4s10.4,4.7,10.4,10.4S147.5,152.2,141.7,152.2z
			 M141.7,132.3c-5.2,0-9.4,4.2-9.4,9.4s4.2,9.4,9.4,9.4s9.4-4.2,9.4-9.4S146.9,132.3,141.7,132.3z"/>
	</g>
</g>
</svg>
